<?xml version="1.0" encoding="utf-8"?>
<!-- Generator: Adobe Illustrator 19.1.0, SVG Export Plug-In . SVG Version: 6.00 Build 0)  -->
<svg version="1.1" id="レイヤー_1" xmlns="http://www.w3.org/2000/svg" xmlns:xlink="http://www.w3.org/1999/xlink" x="0px"
	 y="0px" viewBox="0 0 116.95 229.41" style="enable-background:new 0 0 116.95 229.41;" xml:space="preserve">
<path d="M56.44,112.39c30.35,0,55.04-24.69,55.04-55.04C111.48,27,86.79,2.3,56.44,2.3C26.09,2.3,1.4,27,1.4,57.35
	C1.4,87.7,26.09,112.39,56.44,112.39z M100.71,57.35c0,11.93-4.75,22.77-12.45,30.73c0.23-0.74,0.36-1.55,0.36-2.43V34.8
	c0-4.24-3.55-9.21-9.07-10.63c-10.14,4.88-30.88,6.79-44.34,4.26c0.04-0.62,0.07-1.1,0.07-1.42c0.05-1.85-3.36-2.91-7.37-3.48
	c7.71-6.51,17.66-10.45,28.52-10.45C80.85,13.07,100.71,32.94,100.71,57.35z M56.88,60.18H38.69v-5.75h18.19V60.18z M38.69,68.81
	h18.19v5.77H38.69V68.81z M61.1,43.16c-2.99,2.47-19.41,3.05-29.7,1.87c0.71-1.69,1.29-3.4,1.77-5.07c11.79,0,30.97,0,41.55,0v37.86
	c0,5.2-1.53,7.12-5.58,7.12c-0.33,0-0.76,0-1.24,0c0.35-0.78,0.54-1.71,0.54-2.81c0-6.79,0-30.35,0-32.45
	C68.44,46.59,65.51,43.94,61.1,43.16z M21,30.84c0.11,2.34,0.09,4.96,0.09,7.68c0,8.91-0.25,17.59-2.11,19.8
	c3.36-1.21,6.03-3.36,8.15-5.97v30.3c0,3.33,2.59,5.28,5.78,5.28c3,0,5.47-1.73,5.75-4.71h13.53c1.66,3.54,6.82,4.71,10.22,4.71
	c1.29,0,2.42-0.24,3.35-0.72c4.12,4.88,10.17,6.08,14.51,6.08c0.82,0,1.61-0.09,2.36-0.27c-7.34,5.4-16.4,8.6-26.19,8.6
	c-24.41,0-44.27-19.86-44.27-44.27C12.16,47.41,15.46,38.23,21,30.84z"/>
<path d="M22.29,165.32c1.81,5.2,1.38,15.35-0.85,23.76c-3.93,14.82-8.45,26.48-18.45,39.35c25.56-7.12,40.15-31.03,42.63-50.57
	C46.49,170.94,31.15,165.32,22.29,165.32z"/>
<path d="M82.34,183.53c-6.51-17.24-8.91-29.7-10.66-40.51c-4.08-1.16-11.57-1.89-19.53-1.89c-5.09,0-12.74,0.86-16.3,1.89
	c-2.9,0.84-3.95,5.86-3.78,9.34c4.26,0,11.39,0.9,15.87,1.95c4.35,1.02,6.82,3.65,9.53,8.85c7,13.44,9.27,38.01,13.21,51.52
	c2.77,8.68,10.04,11.96,18.83,11.96c9.1,0,17.39,0,26.22,0C107.77,221.35,92.3,209.92,82.34,183.53z"/>
</svg>
