<?xml version="1.0" encoding="utf-8"?>
<!-- Generator: Adobe Illustrator 19.1.0, SVG Export Plug-In . SVG Version: 6.00 Build 0)  -->
<svg version="1.1" id="レイヤー_1" xmlns="http://www.w3.org/2000/svg" xmlns:xlink="http://www.w3.org/1999/xlink" x="0px"
	 y="0px" viewBox="0 0 144.14 26.67" style="enable-background:new 0 0 144.14 26.67;" xml:space="preserve">
<g>
	<g>
		<path d="M122.88,22.75c1.74-4.1,2.22-12.52,1.36-18.45c2.05,0.05,4.63,0.36,4.58,1.99c-0.05,2.14-0.14,4.57-0.57,6.91
			C127.46,17.6,126,21.57,122.88,22.75z"/>
		<path d="M125.43,4.74c3.33,1.16,10.88,1.09,14.29,0.38c0.73-0.15,1.36-0.45,1.57-0.67c0.47,0.42,2.68,0.67,2.68,2.41
			c0,1.3-1.19,1.73-2.82,1.73c-3.59,0-11.28,0-14.55,0C125.86,7.6,125.43,6.47,125.43,4.74z"/>
		<path d="M134.25,13.23c-0.65-0.86-1.33-1.75-1.33-3.26c1.32,0.46,1.88,0.75,4.71,0.58c0.65-0.04,1.02-0.39,1.2-0.58
			c0.56,0,2.34,0.47,2.34,1.99c0,0.88-1.01,1.27-2.29,1.27H134.25z"/>
		<path d="M132.44,6.9c0-1.96,0.04-3.52-0.61-4.27c2.03,0,4.32-0.08,4.68,1.31c0.29,1.1-0.42,1.38-0.42,2.96"/>
		<path d="M132.44,12.59c0-1.96,0.04-3.52-0.61-4.27c2.03,0,4.32-0.09,4.68,1.31c0.29,1.1-0.42,1.38-0.42,2.96"/>
		<g>
			<path d="M128.57,17.56l-1.82-3.07c2.71,0.59,12.5,0.58,13.53-0.27c1.3,0.23,2.17,1.02,2.17,1.93c0,0.62,0,3.66,0,5.67
				c0,1.16-0.7,1.72-1.78,1.72c-1.05,0-2.66-0.37-3.08-1.52c0.92,0,1.44-0.16,1.44-0.59v-3.88H128.57z"/>
			<rect x="127.76" y="19.79" width="14.36" height="2.56"/>
			<path d="M130.17,15.4v6.57c0,0.98-0.77,1.56-1.71,1.56c-0.95,0-1.71-0.58-1.71-1.56v-7.49L130.17,15.4z"/>
		</g>
		<path d="M136.09,12.46c0,0.21,0,2.58,0,3.26h-3.65v-3.26H136.09z"/>
	</g>
	<g>
		<path d="M62.65,6.98c-0.43-0.89-0.62-2-0.62-3.24c3.7,1.1,12.35,1.2,15.76,0.46c0.73-0.16,1.17-0.47,1.38-0.69
			c0.47,0.44,2.69,0.7,2.69,2.34c0,0.74-0.79,1.13-2.21,1.13H62.65z"/>
		<path d="M62.26,13.03c-0.43-0.89-0.62-2.01-0.62-3.24c3.7,1.1,13.13,1.2,16.54,0.46c0.73-0.16,1.14-0.42,1.72-0.42
			c0.58,0,2.34,0.43,2.34,2.07c0,0.7-0.48,1.14-1.97,1.14H62.26z"/>
		<path d="M70.14,6.9c0-1.96,0.04-3.52-0.61-4.27c2.03,0,4.32-0.08,4.68,1.31c0.29,1.1-0.42,1.38-0.42,2.96"/>
		<g>
			<path d="M65.27,16.21l-1.81-2.67c2.71,0.59,13.75,0.66,14.78-0.18c1.3,0.23,2.17,1.02,2.17,1.93c0,0.62,0,4.52,0,6.53
				c0,1.16-0.7,1.72-1.78,1.72c-1.05,0-2.66-0.37-3.08-1.52c0.92,0,1.44-0.16,1.44-0.59v-5.22H65.27z"/>
			<rect x="64.47" y="16.87" width="15.61" height="1.66"/>
			<rect x="64.47" y="19.17" width="15.61" height="2.22"/>
			<path d="M66.88,14.54v7.43c0,0.98-0.77,1.56-1.71,1.56c-0.94,0-1.71-0.58-1.71-1.56v-8.43L66.88,14.54z"/>
		</g>
		<path d="M73.79,5.85c0,0.44,0,5.5,0,6.93h-3.65V5.85H73.79z"/>
		<path d="M64.03,7.49c4.78,0.83,10.66,0.47,12.25,0.19c0.91-0.16,1.43-0.3,1.89-0.5c0.58,0.16,1.69,0.51,1.69,1.56
			c0,0.79-0.85,0.96-1.86,0.96H64.44C64.16,9.1,64.03,8.34,64.03,7.49z"/>
	</g>
	<g>
		<path d="M0.18,12.93C0.73,12.28,0.8,9.71,0.8,7.07c0-2.01,0.05-3.85-0.62-4.61c1.7,0,4.85,0.24,4.83,1.21
			C4.98,4.69,4.49,11.37,0.18,12.93z"/>
		<path d="M13.05,21.07c0.63,0,1.64,0,2.09,0c1.2,0,1.65-0.57,1.65-2.11V7.75c-3.42,0-9.99,0-13.32,0v-3.8
			c3.74,1.27,11.34,0.77,14.75-0.87c1.63,0.42,2.68,1.89,2.68,3.14v15.05c0,1.42-1.11,2.26-2.47,2.26c-1.66,0-4.16-0.59-5.19-3.36"
			/>
		<path d="M4.41,12.04L2.59,9.05C5.3,9.64,11.74,9.54,12.76,8.7c1.3,0.23,2.17,1.01,2.17,1.93c0,0.62,0,7.6,0,9.61
			c0,1.16-0.7,1.72-1.78,1.72c-1.05,0-2.66-0.37-3.08-1.52c0.92,0,1.44-0.16,1.44-0.59v-7.81H4.41z"/>
		<path d="M6.02,9.89v10.5c0,0.99-0.77,1.56-1.71,1.56c-0.95,0-1.71-0.58-1.71-1.56V9.05L6.02,9.89z"/>
		<rect x="3.48" y="18" width="9.61" height="2.56"/>
		<rect x="3.48" y="13.74" width="9.61" height="2.56"/>
	</g>
	<g>
		<path d="M33.28,9.03c0.42,1.22,0.32,3.58-0.2,5.55c-0.92,3.46-1.97,5.78-4.31,8.79c5.97-1.66,9.06-6.84,9.63-11.4
			C38.61,10.35,35.35,9.03,33.28,9.03z"/>
		<path d="M47.36,13.06c-1.52-4.02-1.96-6.71-2.43-9.17c-0.95-0.27-2.99-0.44-4.84-0.44c-1.19,0-2.98,0.2-3.8,0.44
			c-0.68,0.2-0.92,1.37-0.88,2.18c1,0,2.66,0.21,3.7,0.46c1.02,0.24,2.17,0.91,2.68,2.18c1.43,3.55,2.16,8.24,3.08,11.4
			c0.65,2.02,2.11,2.79,4.17,2.79c2.12,0,4.06,0,6.12,0C53.29,21.66,49.68,19.22,47.36,13.06z"/>
	</g>
	<g>
		<path d="M93.31,17.77c-0.43-0.9-0.62-2.21-0.62-3.46c3.7,1.11,13.13,1.22,16.54,0.47c0.73-0.16,1.17-0.59,1.37-0.82
			c0.48,0.45,2.69,0.83,2.69,2.48c0,0.75-0.43,1.33-1.97,1.33H93.31z"/>
		<path d="M98.39,15.87c-1.43,4.1-4.03,5.85-5.71,6.42c3.62,1.53,5.91,0.55,6.66-1.37c1-2.55,1.14-3.9,1.34-4.89"/>
		<path d="M107.59,15.87c1.43,4.1,4.03,5.85,5.71,6.42c-3.62,1.53-5.91,0.55-6.66-1.37c-1-2.55-1.14-3.9-1.34-4.89"/>
		<rect x="94.53" y="10.81" width="16.91" height="2.59"/>
		<rect x="94.53" y="7.63" width="16.91" height="2.16"/>
		<g>
			<path d="M95.68,6.6l-1.81-3.07c2.71,0.59,15.05,0.58,16.08-0.27c1.3,0.23,2.17,1.02,2.17,1.93c0,0.62,0,5.52,0,7.53
				c0,1.16-0.7,1.72-1.78,1.72c-1.05,0-2.66-0.37-3.08-1.52c0.92,0,1.44-0.16,1.44-0.59V6.6H95.68z"/>
			<path d="M97.29,4.45v8.43c0,0.99-0.77,1.56-1.71,1.56c-0.95,0-1.71-0.58-1.71-1.56V3.53L97.29,4.45z"/>
		</g>
		<path d="M101.36,5.09h3.27v16.95c0,0.94-0.73,1.49-1.63,1.49c-0.9,0-1.63-0.55-1.63-1.49V5.09z"/>
	</g>
</g>
</svg>
