<?xml version="1.0" encoding="utf-8"?>
<!-- Generator: Adobe Illustrator 19.1.0, SVG Export Plug-In . SVG Version: 6.00 Build 0)  -->
<svg version="1.1" id="レイヤー_1" xmlns="http://www.w3.org/2000/svg" xmlns:xlink="http://www.w3.org/1999/xlink" x="0px"
	 y="0px" viewBox="0 0 142 26.67" style="enable-background:new 0 0 142 26.67;" xml:space="preserve">
<g>
	<path d="M46.4,7.36c-0.97,3.97-3.74,8.41-7.6,12.17l-0.2,0.19l1.66,1.7l0.2-0.19c2.45-2.39,6.77-7.3,8.24-13.31l0.07-0.27
		L46.47,7.1L46.4,7.36z M48.11,8.06c-1.46,5.6-5.44,10.21-7.83,12.59l-0.89-0.92c3.74-3.71,6.45-8.05,7.48-11.98L48.11,8.06z"/>
	<path d="M57.3,10.07c-0.3-0.96-0.84-2.73-3.03-2.73h-3.25v2.38h3.25c0.31,0,0.43,0,0.76,1.06c0.94,3.03,3.77,7.63,7.76,10.57
		l0.22,0.16l1.41-1.92l-0.22-0.16C60.8,16.93,58.16,12.83,57.3,10.07 M62.9,20.74c-3.78-2.86-6.45-7.23-7.35-10.12
		c-0.38-1.24-0.66-1.45-1.29-1.45h-2.7V7.89h2.7c1.64,0,2.14,1.16,2.51,2.35c0.86,2.78,3.49,6.89,6.88,9.47L62.9,20.74z"/>
	<path d="M2.27,15.36c1.2-1.9,2.05-3.71,2.62-5.64h16.46c0.36,0,0.71,0.39,0.71,0.81c0,1.71-0.1,4.17-0.6,6.11
		c-0.23,0.91-0.78,1.88-3.09,2.16l-0.27,0.03l0.29,2.36l0.27-0.03c2.8-0.34,4.52-1.66,5.1-3.92c0.56-2.19,0.68-4.85,0.68-6.7
		c0-1.73-1.41-3.18-3.08-3.18H5.44c0.08-0.45,0.15-0.91,0.21-1.38l0.03-0.27L3.33,5.4L3.29,5.67c-0.16,1.32-0.41,2.5-0.76,3.64
		C2.51,9.34,2.5,9.37,2.5,9.41c-0.5,1.59-1.23,3.08-2.24,4.69l-0.15,0.23l2.01,1.27L2.27,15.36z M21.35,7.89
		c1.37,0,2.54,1.21,2.54,2.64c0,1.82-0.11,4.44-0.66,6.57c-0.5,1.95-1.97,3.12-4.36,3.48L18.7,19.3c2.45-0.38,3.05-1.61,3.28-2.53
		c0.51-2,0.62-4.5,0.62-6.25c0-0.72-0.59-1.36-1.26-1.36H5.04c0.11-0.42,0.21-0.84,0.3-1.28H21.35z M3.47,7.89h1.31
		C4.69,8.32,4.59,8.75,4.47,9.17H3.15C3.27,8.75,3.38,8.32,3.47,7.89 M5.07,6.17c-0.05,0.4-0.11,0.79-0.18,1.17h-1.3
		C3.67,6.91,3.74,6.47,3.8,6.01L5.07,6.17z M0.87,14.15c0.94-1.52,1.62-2.94,2.11-4.44h1.33c-0.53,1.75-1.3,3.4-2.36,5.12
		L0.87,14.15z"/>
	<path d="M8.32,10.76c-1.37,0-2.49,1.11-2.49,2.48v3.84c0,1.37,1.11,2.48,2.49,2.48h6.75c1.37,0,2.48-1.11,2.48-2.48v-3.84
		c0-1.37-1.11-2.48-2.48-2.48H8.32z M15.17,14.02H8.21v-0.77c0-0.06,0.05-0.11,0.11-0.11h6.75c0.06,0,0.11,0.05,0.11,0.11V14.02z
		 M15.17,15.85H8.21v-1.28h6.96V15.85z M17,15.85h-1.28v-1.28H17V15.85z M8.21,16.4h6.96v0.69c0,0.06-0.05,0.11-0.11,0.11H8.32
		c-0.06,0-0.11-0.05-0.11-0.11V16.4z M7.66,15.85H6.38v-1.28h1.28V15.85z M15.07,19.02H8.32c-1.07,0-1.94-0.87-1.94-1.94V16.4h1.28
		v0.69c0,0.36,0.29,0.66,0.66,0.66h6.75c0.36,0,0.66-0.29,0.66-0.66V16.4H17v0.69C17,18.15,16.13,19.02,15.07,19.02 M17,13.24v0.77
		h-1.28v-0.77c0-0.36-0.29-0.66-0.66-0.66H8.32c-0.36,0-0.66,0.29-0.66,0.66v0.77H6.38v-0.77c0-1.07,0.87-1.94,1.94-1.94h6.75
		C16.13,11.31,17,12.18,17,13.24"/>
	<path d="M139.39,7.4h-1.88l0.7-0.93l-1.9-1.42l-1.77,2.35h-3.77l-1.15-2.37l-2.14,1.03l0.65,1.34h-3.01l-1.15-2.37l-2.14,1.03
		l0.65,1.34h-1.47c-1.37,0-2.49,1.11-2.49,2.48v1.67h2.38V9.88c0-0.06,0.05-0.11,0.11-0.11h2.62h2.64h3.01h2.64h0.84h2.97h3.66
		c0.06,0,0.11,0.05,0.11,0.11v1.67h2.38V9.88C141.87,8.51,140.76,7.4,139.39,7.4 M136.41,5.81l1.02,0.77l-0.61,0.82h-1.6
		L136.41,5.81z M128.21,6.32l1.15-0.56l0.79,1.64h-1.42L128.21,6.32z M122.56,6.32l1.15-0.56l0.79,1.64h-1.42L122.56,6.32z
		 M121.01,9.22c-0.36,0-0.66,0.29-0.66,0.66V11h-1.28V9.88c0-1.07,0.87-1.94,1.94-1.94h1.73l0.62,1.28H121.01z M123.97,9.22
		l-0.62-1.28h1.42l0.62,1.28H123.97z M126,9.22l-0.62-1.28h3.01l0.62,1.28H126z M129.62,9.22L129,7.95h1.42l0.62,1.28H129.62z
		 M131.65,9.22l-0.62-1.28h3.09l-0.96,1.28H131.65z M133.85,9.22l0.96-1.28h1.6l-0.96,1.28H133.85z M141.32,11h-1.28V9.88
		c0-0.36-0.29-0.66-0.66-0.66h-3.25l0.96-1.28h2.29c1.07,0,1.94,0.87,1.94,1.94V11z"/>
	<path d="M131.38,15.29l3.55-0.86c0.05-0.01,0.1-0.03,0.14-0.04c0.91-0.35,1.45-1.29,1.27-2.24c-0.17-0.92-0.92-1.54-1.88-1.54
		h-10.68v2.38h0.27h0.27h6.45l-0.87,0.21c-0.54,0.13-0.91,0.6-0.91,1.16v0.95h-10.47v2.38H129v0.99c0,0.06-0.05,0.11-0.11,0.11
		h-1.83v2.38h1.83c1.37,0,2.48-1.11,2.48-2.48v-0.99h10.49v-2.38h-10.49V15.29z M129.55,14.36c0-0.3,0.2-0.55,0.49-0.62l3.12-0.75
		c0.14-0.03,0.22-0.16,0.21-0.3c-0.02-0.14-0.13-0.24-0.27-0.24h-8.76v-1.28h10.13c0.68,0,1.22,0.44,1.34,1.09
		c0.13,0.69-0.26,1.38-0.93,1.63c-0.03,0.01-0.05,0.02-0.08,0.02l-3.97,0.96v0.45h-1.28V14.36z M130.83,17.14h-1.28v-1.28h1.28
		V17.14z M119.07,15.86H129v1.28h-9.93V15.86z M130.83,18.68c0,1.07-0.87,1.94-1.94,1.94h-1.28v-1.28h1.28
		c0.36,0,0.66-0.29,0.66-0.66v-0.99h1.28V18.68z M141.32,17.14h-9.95v-1.28h9.95V17.14z"/>
	<path d="M92.13,11.58h10.43V9.2H92.07V5.52h-2.38V9.2H79.21v2.38h10.42c-0.66,4.99-6.92,6.67-10.37,7.59l-0.27,0.07l0.61,2.3
		l0.26-0.07c3.04-0.81,8.58-2.3,11.01-6.33c2.42,4.03,7.97,5.52,11.01,6.33l0.26,0.07l0.61-2.3l-0.26-0.07
		C99.05,18.25,92.79,16.57,92.13,11.58 M91.52,10.67c0,0.12-0.01,0.24-0.01,0.36h-1.26c0-0.12-0.01-0.24-0.01-0.36V9.75h1.28V10.67z
		 M91.47,11.58c-0.08,0.85-0.29,1.63-0.59,2.33c-0.3-0.71-0.51-1.48-0.59-2.33H91.47z M102.01,9.75v1.28h-9.93
		c-0.01-0.12-0.01-0.23-0.01-0.35c0,0,0,0,0,0c0,0,0,0,0,0v0V9.75H102.01z M90.24,6.07h1.28V9.2h-1.28V6.07z M79.76,11.03V9.75h9.94
		v0.92l0,0c0,0,0,0,0,0c0,0,0,0,0,0c0,0.12-0.01,0.24-0.01,0.35H79.76z M80,20.86l-0.33-1.24c3.35-0.9,8.9-2.49,10.26-6.83
		c0.15,0.64,0.37,1.22,0.64,1.77C88.4,18.52,83.07,20.04,80,20.86 M101.76,20.87c-3.07-0.82-8.41-2.35-10.57-6.3
		c0.27-0.55,0.49-1.13,0.64-1.77c1.36,4.34,6.91,5.93,10.26,6.83L101.76,20.87z"/>
</g>
</svg>
