<?xml version="1.0" encoding="utf-8"?>
<!-- Generator: Adobe Illustrator 19.1.0, SVG Export Plug-In . SVG Version: 6.00 Build 0)  -->
<svg version="1.1" id="レイヤー_1" xmlns="http://www.w3.org/2000/svg" xmlns:xlink="http://www.w3.org/1999/xlink" x="0px"
	 y="0px" viewBox="3 37.33 105.62 26.67" style="enable-background:new 3 37.33 105.62 26.67;" xml:space="preserve">
<g>
	<path style="fill:#FFFFFF;" d="M3,51.25v-0.03c0-2.34,1.82-4.32,4.32-4.32c2.48,0,4.31,1.95,4.31,4.29v0.03
		c0,2.34-1.84,4.32-4.34,4.32C4.81,55.54,3,53.58,3,51.25z M10.36,51.25v-0.03c0-1.78-1.33-3.23-3.07-3.23
		c-1.79,0-3.03,1.46-3.03,3.2v0.03c0,1.78,1.31,3.22,3.06,3.22C9.11,54.43,10.36,52.99,10.36,51.25z"/>
	<path style="fill:#FFFFFF;" d="M15.41,47.07h1.23v1.44c0.54-0.9,1.41-1.62,2.83-1.62c2,0,3.17,1.34,3.17,3.31v5.14h-1.23v-4.83
		c0-1.54-0.83-2.5-2.29-2.5c-1.42,0-2.48,1.04-2.48,2.59v4.74h-1.23V47.07z"/>
	<path style="fill:#FFFFFF;" d="M26.93,43.66h1.23v11.68h-1.23V43.66z"/>
	<path style="fill:#FFFFFF;" d="M32.48,43.9h1.41v1.36h-1.41V43.9z M32.56,47.07h1.23v8.28h-1.23V47.07z"/>
	<path style="fill:#FFFFFF;" d="M38.14,47.07h1.23v1.44c0.54-0.9,1.41-1.62,2.83-1.62c2,0,3.17,1.34,3.17,3.31v5.14h-1.23v-4.83
		c0-1.54-0.83-2.5-2.29-2.5c-1.42,0-2.48,1.04-2.48,2.59v4.74h-1.23C38.14,55.34,38.14,47.07,38.14,47.07z"/>
	<path style="fill:#FFFFFF;" d="M53.26,54.46c1.14,0,1.94-0.46,2.61-1.17l0.77,0.69c-0.83,0.93-1.84,1.55-3.41,1.55
		c-2.27,0-4.13-1.75-4.13-4.32c0-2.4,1.68-4.32,3.97-4.32c2.45,0,3.86,1.95,3.86,4.39c0,0.11,0,0.24-0.02,0.43h-6.56
		C50.52,53.46,51.8,54.46,53.26,54.46z M55.67,50.72c-0.14-1.5-1.01-2.79-2.64-2.79c-1.42,0-2.51,1.18-2.69,2.79H55.67z"/>
	<path style="fill:#FFFFFF;" d="M66.39,54.29l0.62-0.88c0.9,0.67,1.89,1.06,2.87,1.06c0.99,0,1.71-0.51,1.71-1.31v-0.03
		c0-0.83-0.98-1.15-2.06-1.46c-1.3-0.37-2.74-0.82-2.74-2.34V49.3c0-1.42,1.18-2.37,2.82-2.37c1.01,0,2.13,0.35,2.98,0.91
		l-0.56,0.93c-0.77-0.5-1.65-0.8-2.45-0.8c-0.98,0-1.6,0.51-1.6,1.2v0.03c0,0.78,1.02,1.09,2.13,1.42c1.28,0.38,2.66,0.88,2.66,2.37
		v0.03c0,1.57-1.3,2.48-2.95,2.48C68.63,55.5,67.32,55.04,66.39,54.29z"/>
	<path style="fill:#FFFFFF;" d="M76.54,43.66h1.23v4.85c0.54-0.9,1.41-1.62,2.83-1.62c2,0,3.17,1.34,3.17,3.31v5.14h-1.23v-4.83
		c0-1.54-0.83-2.5-2.29-2.5c-1.42,0-2.48,1.04-2.48,2.59v4.74h-1.23C76.54,55.34,76.54,43.66,76.54,43.66z"/>
	<path style="fill:#FFFFFF;" d="M87.46,51.25v-0.03c0-2.34,1.82-4.32,4.32-4.32c2.48,0,4.31,1.95,4.31,4.29v0.03
		c0,2.34-1.84,4.32-4.34,4.32C89.27,55.54,87.46,53.58,87.46,51.25z M94.83,51.25v-0.03c0-1.78-1.33-3.23-3.07-3.23
		c-1.79,0-3.03,1.46-3.03,3.2v0.03c0,1.78,1.31,3.22,3.06,3.22C93.58,54.43,94.83,52.99,94.83,51.25z"/>
	<path style="fill:#FFFFFF;" d="M99.88,47.07h1.23v1.67c0.67-0.99,1.65-1.84,3.17-1.84c1.98,0,3.95,1.57,3.95,4.29v0.03
		c0,2.71-1.95,4.31-3.95,4.31c-1.54,0-2.53-0.83-3.17-1.76v4.15h-1.23V47.07z M106.97,51.23V51.2c0-1.95-1.34-3.2-2.91-3.2
		c-1.54,0-2.99,1.3-2.99,3.18v0.03c0,1.92,1.46,3.2,2.99,3.2C105.65,54.42,106.97,53.23,106.97,51.23z"/>
</g>
</svg>
