<?xml version="1.0" encoding="utf-8"?>
<!-- Generator: Adobe Illustrator 19.1.0, SVG Export Plug-In . SVG Version: 6.00 Build 0)  -->
<svg version="1.1" id="レイヤー_1" xmlns="http://www.w3.org/2000/svg" xmlns:xlink="http://www.w3.org/1999/xlink" x="0px"
	 y="0px" viewBox="0 0 137 47.17" style="enable-background:new 0 0 137 47.17;" xml:space="preserve">
<g>
	<g>
		<g>
			<path d="M18.09,11.01c-6.94,0-12.59,5.65-12.59,12.59c0,6.94,5.65,12.59,12.59,12.59c6.94,0,12.59-5.65,12.59-12.59
				C30.68,16.66,25.03,11.01,18.09,11.01z M18.09,33.73c-5.58,0-10.13-4.54-10.13-10.13c0-2.27,0.75-4.37,2.02-6.07
				C10.01,18.07,10,18.67,10,19.3c0,2.04-0.06,4.02-0.48,4.53c0.77-0.28,1.38-0.77,1.86-1.36v6.93c0,0.76,0.59,1.21,1.32,1.21
				c0.69,0,1.25-0.4,1.32-1.08h3.09c0.38,0.81,1.56,1.08,2.34,1.08c0.3,0,0.55-0.06,0.77-0.17c0.94,1.12,2.33,1.39,3.32,1.39
				c0.19,0,0.37-0.02,0.54-0.06C22.4,33,20.33,33.73,18.09,33.73z M19.15,20.36c-0.68,0.56-4.44,0.7-6.79,0.43
				c0.16-0.39,0.3-0.78,0.4-1.16c2.7,0,7.08,0,9.5,0v8.66c0,1.19-0.35,1.63-1.28,1.63c-0.08,0-0.17,0-0.28,0
				c0.08-0.18,0.12-0.39,0.12-0.64c0-1.55,0-6.94,0-7.42C20.83,21.14,20.16,20.54,19.15,20.36z M14.03,24.25v-1.31h4.16v1.31H14.03z
				 M18.19,26.23v1.32h-4.16v-1.32H18.19z M25.37,30.64c0.05-0.17,0.08-0.36,0.08-0.56V18.45c0-0.97-0.81-2.11-2.07-2.43
				c-2.32,1.12-7.06,1.55-10.14,0.97c0.01-0.14,0.02-0.25,0.02-0.33c0.01-0.42-0.77-0.67-1.69-0.8c1.76-1.49,4.04-2.39,6.53-2.39
				c5.58,0,10.13,4.54,10.13,10.13C28.21,26.33,27.13,28.81,25.37,30.64z"/>
			<path d="M39.42,19.37c0.41,1.19,0.32,3.51-0.2,5.44c-0.9,3.39-1.93,6.06-4.22,9c5.85-1.63,9.18-7.1,9.75-11.57
				C44.95,20.65,41.45,19.37,39.42,19.37z"/>
			<path d="M53.16,23.53c-1.49-3.94-2.04-6.79-2.44-9.27c-0.93-0.26-2.65-0.43-4.47-0.43c-1.16,0-2.91,0.2-3.73,0.43
				c-0.66,0.19-0.9,1.34-0.86,2.14c0.98,0,2.61,0.21,3.63,0.45c1,0.23,1.56,0.83,2.18,2.03c1.6,3.07,2.12,8.69,3.02,11.78
				c0.63,1.99,2.3,2.74,4.31,2.74c2.08,0,3.98,0,6,0C58.97,32.18,55.43,29.57,53.16,23.53z"/>
		</g>
	</g>
	<rect y="47.06" width="65.14" height="0.14"/>
	<rect y="0" width="65.14" height="0.14"/>
	<rect x="71.05" y="0.01" width="65.14" height="0.14"/>
	<rect x="71.05" y="23.54" width="65.14" height="0.14"/>
	<rect x="71.05" y="47.08" width="65.14" height="0.14"/>
	<rect x="71.05" y="35.31" width="65.14" height="0.14"/>
	<g>
		<g>
			<path d="M84.76,11.23c-0.1,0.09-0.16,0.25-0.24,0.38c-0.2,0.3-0.33,0.51-0.53,1c-0.03,0.06,0,0.16-0.04,0.24
				c-0.03,0.08-0.11,0.13-0.15,0.19c-0.13,0.43-0.33,1.05-0.52,1.58c-0.39,1.07-0.78,2.41-1.19,3.61c0.23,0,0.44-0.13,0.67-0.19
				c1.72-0.59,3.63-1.29,5.33-2.1c0.56-0.27,1.01-0.57,2.14-1.14c0.08-0.05,0.13-0.13,0.24-0.19c0.2-0.11,0.37-0.2,0.62-0.39
				c0.04-0.03,0.1-0.01,0.14-0.04c0.06-0.06,0.15-0.16,0.24-0.25c0.06-0.05,0.14-0.32,0.34-0.32c0.11,0,0.32,0.16,0.32,0.3
				c0,0.15-0.11,0.38-0.18,0.51c-0.13,0.16-0.37,0.27-0.53,0.38c-0.04,0.03-0.03,0.09-0.06,0.09c-0.03,0-0.04,0-0.06,0
				c-0.04,0-0.11,0.08-0.16,0.1c-0.56,0.3-1.28,0.64-2.03,1.04c-0.11,0.05-0.19,0.15-0.29,0.19c-0.1,0.05-0.23,0.05-0.33,0.1
				c-0.03,0.01-0.04,0.09-0.05,0.09c-0.08,0.05-0.14,0.01-0.24,0.05c-0.1,0.05-0.19,0.1-0.28,0.14c-1.01,0.48-2.08,0.86-3.15,1.25
				c-0.09,0.03-0.2,0.1-0.29,0.13c-0.18,0.06-0.32,0.06-0.52,0.15c-0.06,0.03-0.09,0.08-0.15,0.1c-0.2,0.08-0.4,0.13-0.62,0.24
				c-0.24,0.13-0.86,0.18-1.04,0.42c0,0.25,0.16,0.48,0.28,0.67c0.18,0.32,0.32,0.59,0.48,0.9c0.01,0.05,0.13,0.06,0.14,0.11
				c0.04,0.06,0.03,0.13,0.05,0.19c0.11,0.18,0.27,0.34,0.33,0.57c0.61,0.44,1.02,1.06,1.77,1.38c0.05,0.18,0.25,0.2,0.38,0.28
				c0.32,0.21,0.63,0.38,1.05,0.57c0.14,0.06,0.28,0.06,0.47,0.15c0.08,0.03,0.13,0.11,0.19,0.14c0.3,0.11,0.63,0.16,0.95,0.28
				c0.16,0.06,0.29,0.16,0.44,0.2c0.82,0.21,1.88,0.29,2.79,0.29c0.38,0,0.78-0.08,1.05-0.08c0.09,0,0.18,0.01,0.29,0.08
				c-0.09,0.27-0.59,0.42-1.01,0.42c-0.03,0-0.08-0.04-0.13-0.04c-0.21,0-0.66,0.05-1.06,0.05c-0.33,0-0.61-0.06-0.93-0.11
				c-0.23-0.01-0.44,0-0.67-0.04c-0.2-0.04-0.45-0.19-0.67-0.19c-0.04,0-0.1,0.01-0.14,0.01c-0.1,0-0.06-0.09-0.15-0.1
				c-0.09-0.04-0.23-0.03-0.32-0.06c-0.05,0-0.06-0.06-0.15-0.09c-0.29-0.08-0.68-0.24-1-0.38c-0.4-0.18-0.99-0.39-1.29-0.62
				c-0.04-0.04-0.09-0.11-0.14-0.14c-0.14-0.09-0.32-0.11-0.43-0.19c-0.04-0.04-0.01-0.1-0.06-0.1c-0.03,0-0.05,0-0.08,0
				c-0.01,0-0.01,0-0.01,0c0-0.03,0.01-0.05,0.01-0.06c0-0.03-0.01-0.04-0.03-0.04c-0.03,0-0.05,0.01-0.06,0.01
				c-0.04,0-0.06-0.11-0.11-0.15c-0.04-0.03-0.09-0.01-0.13-0.05c-0.05-0.03-0.06-0.1-0.1-0.14c-0.04-0.03-0.1-0.01-0.15-0.05
				c-0.32-0.25-0.69-0.64-1-1c-0.52-0.61-0.82-1.34-1.23-2c-0.19,0.16-0.23,0.44-0.29,0.67c-0.24,0.8-0.58,1.78-0.86,2.94
				c0,0.01,0.01,0.05,0.01,0.09c0,0.09-0.03,0.16-0.11,0.44c-0.01,0.06-0.06,0.08-0.09,0.14c-0.08,0.34-0.09,0.8-0.29,1.28
				c-0.06,0.19-0.06,1.01-0.29,1.01c-0.32,0-0.37-0.15-0.37-0.34c0-0.21,0.1-0.42,0.14-0.61c0.05-0.32,0.08-0.66,0.14-0.95
				c0.06-0.29,0.18-0.58,0.25-0.87c0.1-0.45,0.2-0.9,0.32-1.33c0.04-0.09,0.1-0.15,0.1-0.24c0-0.04-0.01-0.09-0.01-0.14
				c0-0.01,0-0.03,0.01-0.05c0.24-0.86,0.59-1.64,0.81-2.48c0.04-0.14,0.01-0.29,0.05-0.43c0.06-0.24,0.2-0.47,0.29-0.72
				c0.39-1.19,0.8-2.5,1.23-3.75c0.05-0.14,0.05-0.29,0.1-0.42c0.01-0.05,0.08-0.09,0.09-0.15c0.1-0.24,0.18-0.61,0.29-0.91
				c-0.18,0-0.3,0.16-0.43,0.24c-0.03,0.03-0.1,0.03-0.14,0.05c-0.03,0.01-0.03,0.08-0.05,0.09c-0.18,0.13-0.4,0.25-0.62,0.39
				c-0.13,0.09-0.28,0.1-0.38,0.23c-0.27,0.13-0.42,0.25-0.81,0.48c-0.13,0.08-0.25,0.24-0.47,0.24c-0.06,0.16-0.18,0.24-0.34,0.29
				c-0.15,0-0.04,0.24-0.19,0.24c-0.01,0-0.03,0-0.03,0c-0.1,0-0.09,0.14-0.16,0.19c-0.05,0.03-0.15,0.01-0.19,0.04
				c-0.04,0.03-0.03,0.1-0.08,0.1c-0.01,0-0.03,0-0.05,0c-0.13,0-0.43,0.29-0.59,0.38c-0.14,0.09-0.33,0.13-0.47,0.24
				c-0.03,0.01-0.04,0.09-0.05,0.09c-0.2,0.1-0.9,0.4-0.9,0.62c0,0.52,1.52,0.69,1.52,1.14c0,0.03-0.14,0.03-0.18,0.03
				c-0.28,0-0.61-0.09-0.87-0.21c-0.06-0.03,0-0.1-0.14-0.1c-0.2,0-0.27-0.19-0.44-0.32c-0.05-0.05-0.13-0.05-0.19-0.09
				c-0.13-0.13-0.25-0.38-0.25-0.63c0-0.09,0.01-0.25,0.06-0.38c0.13-0.19,0.54-0.33,0.87-0.52c0.37-0.21,0.66-0.42,0.95-0.57
				c0.2-0.11,0.52-0.28,0.76-0.43c0.34-0.23,0.72-0.57,1.05-0.67c-0.01,0-0.01,0.01-0.01,0.01c0,0.01,0.05,0.03,0.05,0.03
				c0.06,0,0.25-0.18,0.34-0.23c0.04-0.03,0.1-0.03,0.15-0.05c0.01-0.01,0.01-0.09,0.04-0.1c0.08-0.04,0.16-0.05,0.24-0.09
				c0.18-0.1,0.72-0.48,0.75-0.48c0.01,0,0.05,0.01,0.08,0.01c0.11,0,0.28-0.2,0.42-0.29c0.03-0.03,0.1-0.03,0.14-0.05
				c0.03-0.01,0.03-0.08,0.05-0.1c0.06-0.04,0.16-0.04,0.24-0.09c0.09-0.05,0.34-0.29,0.62-0.38c0.06-0.15,0.15-0.3,0.33-0.62
				c0.1-0.19,0.2-0.47,0.34-0.62c0,0,0.34-0.37,0.63-0.37c0.15,0,0.32,0.09,0.4,0.32C85.2,11.03,84.93,11.07,84.76,11.23z"/>
			<path d="M95.35,20.9c-0.09,0.1-0.18,0.19-0.33,0.21c-0.37,0.47-0.81,0.73-1.41,1.21c-0.37,0.28-0.77,0.58-1.29,0.92
				c-0.25,0.13-0.51,0.37-0.83,0.37c-0.63,0-0.95-0.39-0.95-0.87c0-0.37,0.15-0.78,0.29-1.11c0.04-0.11,0.15-0.32,0.15-0.35
				c0-0.03-0.01-0.05-0.01-0.08c0-0.08,0.08-0.06,0.09-0.09c0.09-0.16,0.33-1.11,0.56-1.11c0.21,0,0.27,0.18,0.39,0.28
				c-0.06,0.24-0.19,0.47-0.29,0.73c-0.03,0.06-0.15,0.1-0.15,0.16c0,0.03,0.01,0.05,0.01,0.09c0,0.09-0.04,0.29-0.09,0.4
				c-0.04,0.1-0.15,0.18-0.19,0.28c-0.09,0.27-0.16,0.57-0.16,0.86c0,0.35,0.18,0.29,0.37,0.29c0.16,0,0.33-0.05,0.52-0.16
				c0.05-0.03,0.01-0.09,0.06-0.09c0.03,0,0.05,0,0.05,0c0.01,0,0.01,0,0.03,0c0.35-0.23,0.86-0.48,1.2-0.81
				c0.42-0.39,1.01-0.75,1.48-1.15c0.25-0.23,0.54-0.39,0.9-0.67c0.08-0.05,0.11,0.01,0.19-0.08c0.03,0,0.03,0.04,0.03,0.08
				c0,0.06-0.01,0.15-0.01,0.16h0.01c0.01,0,0.01,0,0.01,0c0,0.03-0.21,0.15-0.21,0.19c0,0,0,0,0.01,0
				C95.59,20.82,95.45,20.76,95.35,20.9z M93.33,18.93c-0.3-0.13-0.67-0.19-0.67-0.62c0.05-0.04,0.1-0.05,0.16-0.05
				c0.2,0,0.69,0.23,0.69,0.43C93.52,18.86,93.37,18.81,93.33,18.93z"/>
			<path d="M103.03,16.25c0,0.13-0.24,0.15-0.32,0.15c-0.16,0-0.33-0.06-0.52-0.06c-0.19,0-0.38,0.08-0.54,0.09
				c-0.1,0-0.19-0.06-0.29-0.09c-0.19,0-0.37,0.04-0.61,0.04c-0.06,0-0.14,0-0.21-0.01c-1.3-0.13-0.99-0.13-2.31-0.21
				c-0.25,0.05-0.33,0.45-0.39,0.63c-0.27,0.53-0.49,1.01-0.72,1.57c-0.25,0.68-0.76,1.79-0.92,3.13c0,0.01-0.08,0.25-0.08,0.28
				c0,0.44-0.11,0.59-0.11,0.91c0,0.05,0,0.1,0,0.15C96,22.85,96,22.91,96,22.94c0,0.04,0.01,0.09,0.03,0.13
				c-0.01,0.04-0.01,0.08-0.01,0.1c0,0.15,0.09,0.2,0.09,0.35c0,0.03,0,0.06-0.01,0.1c0.05,0.1,0.16,0.2,0.16,0.32
				c0,0.05-0.04,0.16-0.13,0.16c-0.05,0-0.11-0.01-0.16-0.01c-0.04,0-0.08,0.01-0.09,0.05c0-0.01,0-0.03,0-0.04
				c0.01-0.16-0.2-0.23-0.27-0.4c-0.08-0.21-0.13-0.56-0.13-1.05c0-0.48,0.05-1.05,0.13-1.45c0.05-0.3,0.16-0.56,0.24-0.85
				c0.04-0.15,0.04-0.33,0.08-0.48c0.04-0.15,0.16-0.23,0.16-0.4c0-0.04,0-0.06,0-0.09c0-0.14,0.09-0.14,0.11-0.24
				c0.05-0.15,0.2-0.77,0.25-0.95c0.06-0.11,0.16-0.13,0.16-0.3c0.09-0.16,0.15-0.34,0.24-0.53c0.1-0.23,0.33-0.63,0.35-0.9
				c0-0.13,0.19-0.4,0.19-0.45c0-0.01,0-0.01,0-0.01h-0.01c-0.73-0.09-1.42-0.14-2.05-0.14c-1.04,0-1.97,0.13-2.93,0.44
				c-0.33,0.1-0.87,0.23-1.44,0.48c-0.05,0.04,0,0.13-0.11,0.13c-0.03,0-0.05,0-0.08,0c0.04,0-0.23,0.06-0.45,0.15
				c-0.15,0.06-0.27,0.19-0.4,0.29c-0.03,0.01-0.37,0.06-0.37,0.35c0,0.29,0.44,0.16,0.44,0.47c0,0.09-0.23,0.1-0.3,0.1
				c-0.23,0-0.44-0.11-0.64-0.18c0-0.15-0.04-0.25-0.04-0.37c0-0.13,0.16-0.49,0.3-0.57c0.04-0.04,0.11-0.03,0.15-0.06
				c0.06-0.04,0.1-0.15,0.16-0.19c0.06-0.05,0.2-0.04,0.29-0.09c0.3-0.15,0.73-0.44,1.19-0.44c0.56-0.38,1.19-0.4,2.02-0.58
				c0.23-0.04,0.33-0.14,0.58-0.14c0.05,0,0.1,0,0.15,0c0.3,0,0.39-0.14,0.64-0.14c0.06,0,0.14,0,0.21,0c0.35,0,0.66-0.05,0.91-0.05
				c0.57,0,0.96,0.08,1.83,0.15c0.19-0.1,0.49-0.49,0.71-0.8c0.18-0.32,0.29-0.56,0.54-0.82c0.27,0,0.33,0.18,0.45,0.32
				c-0.21,0.49-0.63,0.85-0.75,1.38c0.48,0.2,0.9,0.09,1.34,0.24c0.14,0.05,0.18,0.05,0.2,0.05c0.01,0,0-0.01,0.03-0.01
				c0.01,0,0.08,0.01,0.25,0.06c0.03,0,0.1-0.04,0.18-0.04c0.45,0,0.99,0.2,1.62,0.2c0.2,0,0.42-0.03,0.64-0.05
				C102.93,16.22,103.03,16.13,103.03,16.25z"/>
			<path d="M105.6,20.13l0.11,0.16c-0.43,0.57-1.36,1.17-1.83,1.43c-0.23,0.2-0.43,0.19-0.61,0.4c-0.21,0.11-0.29,0.1-0.54,0.27
				c-0.59,0.38-1.05,0.64-1.87,0.83c0.09-0.08-0.37,0.19-0.94,0.19c-0.34,0-0.83-0.08-1.1-0.34c-0.05-0.04-0.03-0.1-0.05-0.13
				c-0.25-0.24-0.28-0.68-0.28-0.88c0-0.19,0.04-0.49,0.21-0.67c0-0.03,0-0.06,0-0.11c0-0.16,0.16-0.2,0.16-0.4
				c0-0.03-0.01-0.05-0.01-0.06c0.28-0.16,0.42-0.43,0.57-0.69c0.34-0.16,0.61-0.71,0.96-0.71c0.13,0,0.4,0.03,0.4,0.03
				c0.01-0.01,0.03-0.03,0.03-0.03c-0.03,0,0.18,0.09,0.23,0.15c0.08,0.05,0.33,0.11,0.42,0.19c0.08,0.1,0.21,0.57,0.21,0.92
				c0,0.19-0.04,0.34-0.14,0.4c-0.06,0.05-0.18,0-0.3,0.08c-0.13-0.08-0.15-0.16-0.15-0.27c0-0.09,0.03-0.19,0.03-0.29
				c0-0.03-0.03-0.05-0.05-0.06c0.01-0.11,0.06-0.15,0.06-0.21c-0.01-0.16-0.06-0.53-0.27-0.53c-0.37,0-0.64,0.25-0.86,0.48
				c-0.3,0.34-1.01,1.11-1.01,2.01c0,0.35,0.1,0.56,0.52,0.69c0.08,0,0.08,0.09,0.24,0.09c0.14,0,0.28-0.03,0.42-0.03
				c0.42,0,0.8-0.29,1.16-0.29c0.21,0,0.24-0.08,0.38-0.16c0.53-0.19,0.81-0.35,1.19-0.62c0.04-0.03,0.05-0.03,0.09-0.03
				c0.03,0,0.06,0.03,0.1,0.03c-0.09,0,0.3-0.06,0.37-0.33c0.39-0.23,0.68-0.2,0.92-0.51c0.08-0.06,0.15-0.09,0.21-0.14
				c0.05-0.05,0.09-0.14,0.16-0.2c0.05-0.05,0.14-0.06,0.2-0.13c0.03-0.03,0.08-0.11,0.1-0.14h0.13l0.28-0.3L105.6,20.13z"/>
			<path d="M115.48,20.39c-0.15,0.32-0.51,0.56-0.78,0.85c-0.59,0.67-1.16,1.17-1.83,1.78c-0.19,0.11-0.82,0.62-1.01,0.71
				c-0.62,0.28-1.35,0.76-1.83,0.76c-0.19,0-0.44-0.01-0.63-0.03c-0.34-0.18-0.9-0.78-0.9-1.01c0-0.23-0.11-0.28-0.11-0.34
				c0-0.15,0.06-0.27,0.13-0.45c0.04-0.18,0.04-0.39,0.08-0.52c0.05-0.14,0.2-0.28,0.2-0.43c0-0.03-0.03-0.04-0.03-0.06
				c0-0.13,0.27-0.49,0.27-0.68c0-0.1-0.13-0.14-0.2-0.14c-0.19,0-0.4,0.16-0.51,0.19c-0.11,0.08-0.3,0.24-0.44,0.32
				c-0.04,0.04-0.06,0.14-0.13,0.19c-0.06,0.03-0.2,0.04-0.25,0.06c-0.04,0.04-0.08,0.13-0.14,0.19c-0.24,0.19-0.53,0.47-0.83,0.76
				c-0.3,0.29-0.27,0.58-0.68,0.58c-0.23,0-0.56-0.13-0.56-0.39c0-0.13,0.09-0.28,0.11-0.44c0.01-0.11,0.06-0.54,0.08-0.66
				c0.05-0.2,0.57-1.23,0.57-1.52c0-0.03,0-0.04,0-0.04c-0.13,0.09-0.06,0.14-0.16,0.23c-0.08,0.03-0.21,0.09-0.21,0.09
				c0.05,0-0.03,0.1-0.21,0.23c-0.09,0.05-0.18,0.11-0.37,0.13l-0.1-0.1l0.47-0.38c0.14-0.1,0.4-0.45,0.57-0.64
				c0.32-0.25,0.11-0.27,0.3-0.51c0.11-0.37,0.16-0.1,0.3-0.47c0.01-0.01,0.1-0.03,0.1-0.03s-0.01-0.05-0.01-0.1
				c0-0.2,0.15-0.23,0.15-0.37c0-0.05-0.1-0.03-0.1-0.06c0-0.04,0.1-0.03,0.1-0.04c0.08-0.16,0.05-0.21,0.13-0.44
				c0-0.24,0.32-0.45,0.42-0.75c0.03-0.1,0.03-0.2,0.04-0.28c0.04-0.06,0.14-0.13,0.18-0.19c0.06-0.13,0.1-0.3,0.2-0.44
				c0.03-0.06,0.15-0.11,0.15-0.19c0-0.04-0.03-0.08-0.03-0.11c0-0.01,0.01-0.03,0.01-0.04c0.21-0.1,0.21-0.4,0.38-0.72
				c0.1-0.1,0.27-0.35,0.35-0.63c0.11-0.27,0.44-0.63,0.47-0.95c0.25-0.18,0.32-0.49,0.49-0.76c0.05-0.06,0.11-0.13,0.18-0.24
				c0.08-0.13,0.38-0.33,0.38-0.44c0-0.01-0.01-0.04-0.01-0.06c0-0.06,0.03-0.08,0.13-0.16c0.01-0.03,0.27-0.25,0.45-0.25
				c0.25,0,0.49,0.05,0.57,0.21c0.11,0.27,0.25,0.13,0.28,1.12c0,0.18-0.16,0.33-0.16,0.63c0,0.03,0,0.08,0,0.13
				c0,0.15-0.11,0.14-0.14,0.21c-0.04,0.1-0.01,0.23-0.05,0.33c-0.06,0.1-0.15,0.25-0.21,0.35c-0.03,0.04-0.09,0.06-0.1,0.1
				c-0.05,0.09-0.05,0.2-0.1,0.3c-0.14,0.29-0.25,0.39-0.61,0.93c-0.04,0.1-0.06,0.21-0.1,0.3c-0.05,0.06-0.15,0.09-0.19,0.15
				c-0.05,0.05-0.04,0.1-0.06,0.15c-0.13,0.15-0.3,0.32-0.45,0.58c-0.05,0.08-0.19,0.13-0.24,0.19c-0.06,0.13-0.28,0.32-0.38,0.44
				c-0.05,0.06-0.1,0.15-0.16,0.23c-0.08,0.13-0.75,0.66-1.28,1.19c-0.27,0.29-0.39,0.23-0.58,0.57c-0.04,0.1-0.42,1.25-0.45,1.47
				c-0.05,0.25-0.33,0.85-0.33,1.23c0,0.03,0,0.04,0,0.06c0.29-0.13,0.66-0.63,0.81-0.63c0.01,0,0.04,0,0.05,0.01
				c0.01-0.16,0.63-0.62,0.97-0.82c0.01,0,0.68-0.51,1.06-0.51c0.06,0,0.34,0.05,0.4,0.06c0.03,0.01,0.03,0.09,0.05,0.1
				c0.21,0.1,0.3,0.14,0.3,0.48c0,0.04-0.01,0.09-0.03,0.14c0,0.01-0.05,0-0.05,0.03c0,0.03,0,0.04,0,0.05
				c0,0.03-0.03-0.01-0.04,0.05c-0.04,0.15-0.11,0.63-0.18,0.8c-0.1,0.25-0.33,0.75-0.33,1.15c0,0.34,0.06,0.66,0.29,0.93
				c0.2,0.08,0.38,0.11,0.54,0.11c0.58,0,0.95-0.38,1.47-0.63c0.08-0.04,0.18,0,0.25-0.05c0.14-0.06,0.35-0.38,0.49-0.44
				c0.14-0.06,0.52-0.25,0.64-0.34c0.1-0.09,0.16-0.3,0.25-0.4c0.1-0.08,0.29-0.15,0.38-0.23c0.29-0.28,0.49-0.51,0.93-0.97
				c0.03-0.01,0.03-0.09,0.04-0.09c0,0,0.19-0.04,0.21-0.05c0.03-0.01,0.35-0.39,0.37-0.39c0.09-0.06,0.13-0.08,0.19-0.16
				c0.05-0.05,0.28-0.14,0.47-0.37L115.48,20.39z M106.98,18.91c0.2,0,0.53-0.37,0.64-0.51c0.08-0.08,0.19-0.16,0.24-0.21
				c0.08-0.11,0.24-0.11,0.33-0.23c0.11-0.14,0.27-0.21,0.38-0.37c0.16-0.19,0.04-0.15,0.15-0.33c0.04-0.05,0.16-0.06,0.19-0.11
				c0.2-0.25,0.37-0.52,0.56-0.81c0.05-0.09,0.15-0.1,0.21-0.18c0.1-0.21,0.09-0.19,0.21-0.32c0.05-0.1,0.03-0.14,0.06-0.23
				c0.81-1.24,1.43-2.24,1.43-3.16c0-0.38-0.15-0.56-0.33-0.56c-0.13,0-0.29,0.11-0.4,0.21c-0.03,0.03-0.01,0.1-0.05,0.13
				c-0.08,0.09-0.06-0.06-0.24,0.23c-0.52,0.8-1.02,1.54-1.36,2.35c-0.09,0.13-0.21,0.25-0.21,0.38c0,0.01,0,0.03,0,0.04
				c-0.19,0.09-0.16,0.33-0.25,0.49c-0.15,0.3-0.38,0.58-0.4,0.72c-0.57,1.14-0.48,1.02-0.8,1.69
				C107.27,18.33,107.08,18.69,106.98,18.91z"/>
			<path d="M116.38,20.92c0.01,0-0.11,0.06-0.11,0.07c0,0.05-0.88,0.25-0.86,0.25c-0.01,0-0.03,0-0.03,0
				c-0.11,0.27-0.18,0.53-0.18,0.71c0,0.48,0.28,0.8,0.72,0.8c0.42,0,0.91-0.2,1.18-0.33c0.03,0,0.06,0.01,0.09,0.01
				c0.28,0,0.48-0.16,0.58-0.16c0.03,0,0.05,0,0.08,0c0.01,0,0.04,0,0.04,0c0.54-0.28,0.33-0.19,0.97-0.53
				c0.23-0.11,0.68-0.3,0.68-0.42c0-0.01,0-0.01,0-0.03c0.35-0.04,0.56-0.28,0.82-0.39c0.24-0.15,0.05-0.14,0.4-0.23
				c0.23-0.16,0.62-0.53,0.63-0.49c0.03,0.03,0.03,0.06,0.03,0.08c0,0.19-0.32,0.42-0.56,0.62c-0.34,0.32-0.45,0.21-0.77,0.58
				c-0.32,0.08-0.59,0.4-0.91,0.57c0.03-0.01-0.25,0.24-0.37,0.24c-0.03,0-0.05-0.01-0.09-0.01c-0.03,0-0.03,0.08-0.04,0.09
				c-0.05,0.04-0.18,0.03-0.24,0.05c-0.06,0.03-0.32,0.3-0.38,0.3c-0.04,0-0.05-0.05-0.06-0.05c-0.13,0-0.32,0.19-0.44,0.19
				c-0.03,0-0.05,0-0.06,0c-0.04,0-0.05,0.08-0.06,0.08c-0.08,0.05-0.2,0.04-0.32,0.06c-0.18,0.05-0.51,0.16-0.78,0.2
				c-0.04,0-0.11-0.03-0.2-0.03c-0.03,0-0.03,0-0.04,0c-0.34,0-0.82-0.32-0.81-0.3c-0.25-0.06-0.25-0.37-0.38-0.39
				c-0.05-0.33-0.13-0.38-0.13-0.54c0-0.06,0.04-0.2,0.04-0.32c0-0.05-0.01-0.1-0.01-0.15c0-0.14,0.19-0.56,0.33-0.76
				c0.14-0.19,0.34-0.37,0.43-0.59c0.15-0.1,0.52-0.47,0.58-0.59c0.05-0.04,0.14-0.05,0.19-0.08c0.25-0.2,0.54-0.47,0.99-0.47
				c0.42,0,0.71,0.39,0.71,0.58c0,0.05-0.03,0.11-0.14,0.25c-0.01,0.03-0.03,0.06-0.01,0.06c0,0.01-0.01,0.03-0.03,0.04
				c0,0-0.15,0.19-0.35,0.33c-0.01,0.01-0.29,0.32-0.57,0.4c-0.13,0.05-0.24,0.18-0.44,0.19L116.38,20.92z M115.58,20.91
				c0.13-0.09,0.27-0.11,0.37-0.2c0,0.01,0,0.01,0,0.03s0,0.03-0.01,0.04l0.3-0.13c0.01-0.04,0.14-0.11,0.14-0.11
				c0.01,0,0.01,0.01,0.04,0.01c0.24,0,0.48-0.29,0.66-0.44c0.05-0.04,0.18-0.05,0.19-0.08c0.04-0.03,0.01-0.08,0.04-0.09
				c-0.01-0.01,0.27-0.2,0.37-0.34c-0.03-0.13-0.16-0.18-0.27-0.18c-0.39,0-0.78,0.33-1.11,0.66
				C116.06,20.3,115.81,20.61,115.58,20.91z"/>
			<path d="M123.87,22.35c0-0.14,0.14-0.28,0.14-0.45c0-0.06-0.03-0.15-0.03-0.21c0-0.11,0.14-0.23,0.14-0.34
				c0-0.05-0.01-0.1-0.01-0.16c0-0.14,0.1-0.09,0.1-0.21c0-0.03-0.04-0.05-0.04-0.1c0-0.14,0.11-0.38,0.16-0.58
				c-0.03,0-0.01-0.05-0.01-0.14c0-0.06,0-0.14-0.01-0.19c-0.24,0.01-0.35,0.15-0.52,0.24c-0.44,0.38-1.02,0.72-1.62,1.26
				c-0.03,0.04-0.08,0.06-0.1,0.09c-0.09,0.09-0.85,0.96-1.15,0.99c-0.11-0.08-0.18-0.16-0.24-0.25l0.73-2.67
				c0.2,0.08,0.44,0.1,0.49,0.3c-0.14,0.52-0.38,0.91-0.45,1.48c0.21-0.14,0.42-0.33,0.61-0.51c0.08-0.06,0.14-0.06,0.21-0.11
				c0.67-0.67,0.56-0.37,0.85-0.62c0.32-0.24,0.82-0.72,1.29-0.72c0.33,0,0.54,0.23,0.54,0.57c-0.06,0.38,0.01,0.48-0.16,0.69
				c-0.01,0.23-0.09,0.52-0.18,0.81c-0.09,0.27-0.14,0.58-0.28,0.73c0.05,0.08,0.06,0.16,0.06,0.24c0,0.11-0.04,0.24-0.04,0.34
				c0.06,0.34,0.38,0.48,0.66,0.48c0.47,0,0.95-0.39,1.38-0.58c0.54-0.25,0.69-0.43,1.2-0.78c0.13-0.09,0.32-0.1,0.44-0.19
				c0.06-0.05,0.08-0.19,0.15-0.24c0.19-0.13,0.32-0.24,0.62-0.49c0.06-0.04,0.18-0.05,0.24-0.09c0.25-0.2,0.39-0.25,0.63-0.45
				c0.15-0.13,0.45-0.43,0.51-0.43c0.04,0,0.05,0.15,0.05,0.19c0,0.2-0.15,0.23-0.24,0.34c-0.04,0.04-0.04,0.14-0.08,0.16
				c-0.14,0.14-0.58,0.21-0.64,0.42c-0.72,0.37-0.75,0.56-1.48,1.06c-0.21,0.14-0.13,0.14-0.34,0.28c-0.04,0.03-0.29,0.19-0.34,0.19
				c-0.03,0-0.08,0-0.11,0c-0.21,0,0.1,0.11-0.52,0.32c-0.06,0.04-0.14,0.11-0.2,0.15c-0.04,0.01-0.13,0.01-0.18,0.05
				c-0.04,0.04-0.01,0.1-0.11,0.1c-0.05,0-0.1-0.01-0.15-0.01c-0.19,0-0.19,0.14-0.32,0.19c-0.25,0.08-0.27,0.13-0.35,0.13
				c-0.04,0-0.15-0.05-0.34-0.05c-0.13,0-0.21,0.04-0.3,0.04c-0.2,0-0.29-0.2-0.53-0.45C123.95,23.06,123.87,22.59,123.87,22.35z"/>
		</g>
	</g>
</g>
</svg>
