<?xml version="1.0" encoding="utf-8"?>
<!-- Generator: Adobe Illustrator 19.1.0, SVG Export Plug-In . SVG Version: 6.00 Build 0)  -->
<svg version="1.1" id="レイヤー_1" xmlns="http://www.w3.org/2000/svg" xmlns:xlink="http://www.w3.org/1999/xlink" x="0px"
	 y="0px" viewBox="0 0 184.77 26.67" style="enable-background:new 0 0 184.77 26.67;" xml:space="preserve">
<g>
	<path d="M46.45,7.09c-0.98,3.98-3.76,8.44-7.62,12.22l-0.2,0.19l1.67,1.71l0.2-0.19c2.46-2.4,6.79-7.32,8.27-13.35l0.07-0.27
		l-2.32-0.57L46.45,7.09z M48.17,7.79c-1.47,5.62-5.46,10.25-7.86,12.63l-0.9-0.92c3.75-3.72,6.47-8.08,7.51-12.02L48.17,7.79z"/>
	<path d="M57.4,9.81c-0.3-0.96-0.85-2.74-3.04-2.74h-3.26v2.39h3.26c0.31,0,0.44,0,0.76,1.06c0.94,3.04,3.78,7.66,7.79,10.6
		l0.22,0.16l1.41-1.92l-0.22-0.16C60.91,16.69,58.25,12.58,57.4,9.81 M63.01,20.51c-3.79-2.87-6.47-7.25-7.37-10.16
		c-0.38-1.24-0.66-1.45-1.29-1.45h-2.71V7.61h2.71c1.65,0,2.15,1.16,2.52,2.36c0.86,2.79,3.5,6.91,6.9,9.5L63.01,20.51z"/>
	<path d="M2.16,15.11c1.21-1.91,2.05-3.72,2.63-5.66h16.52c0.37,0,0.71,0.39,0.71,0.81c0,1.72-0.11,4.18-0.61,6.13
		c-0.24,0.91-0.79,1.89-3.1,2.17l-0.27,0.03l0.29,2.37l0.27-0.03c2.81-0.34,4.54-1.67,5.12-3.94c0.56-2.19,0.68-4.87,0.68-6.73
		c0-1.73-1.42-3.2-3.1-3.2H5.35C5.43,6.61,5.5,6.16,5.56,5.68l0.03-0.27L3.22,5.12L3.19,5.39C3.03,6.71,2.78,7.9,2.42,9.05
		C2.41,9.07,2.4,9.1,2.39,9.14c-0.51,1.59-1.23,3.09-2.25,4.71L0,14.08l2.02,1.27L2.16,15.11z M21.31,7.61
		c1.38,0,2.55,1.21,2.55,2.65c0,1.83-0.12,4.45-0.66,6.59c-0.5,1.96-1.98,3.13-4.38,3.49l-0.15-1.28c2.46-0.38,3.06-1.62,3.29-2.54
		c0.52-2.01,0.62-4.52,0.62-6.27c0-0.73-0.59-1.36-1.26-1.36H4.94c0.11-0.42,0.21-0.85,0.3-1.28H21.31z M3.37,7.61h1.31
		C4.59,8.05,4.49,8.48,4.37,8.9H3.04C3.17,8.48,3.28,8.05,3.37,7.61 M4.98,5.89c-0.05,0.4-0.11,0.79-0.19,1.18H3.48
		C3.57,6.63,3.64,6.19,3.7,5.73L4.98,5.89z M0.76,13.9c0.94-1.52,1.62-2.95,2.12-4.45h1.34c-0.54,1.76-1.3,3.41-2.37,5.14L0.76,13.9
		z"/>
	<path d="M8.23,10.5c-1.37,0-2.49,1.12-2.49,2.49v3.86c0,1.37,1.12,2.49,2.49,2.49h6.77c1.37,0,2.49-1.12,2.49-2.49v-3.86
		c0-1.37-1.12-2.49-2.49-2.49H8.23z M15.11,13.77H8.13v-0.78c0-0.06,0.05-0.11,0.11-0.11h6.77c0.06,0,0.11,0.05,0.11,0.11V13.77z
		 M15.11,15.6H8.13v-1.28h6.99V15.6z M16.95,15.6h-1.28v-1.28h1.28V15.6z M8.13,16.15h6.99v0.69c0,0.06-0.05,0.11-0.11,0.11H8.23
		c-0.06,0-0.11-0.05-0.11-0.11V16.15z M7.58,15.6H6.29v-1.28h1.28V15.6z M15.01,18.79H8.23c-1.07,0-1.94-0.87-1.94-1.94v-0.69h1.28
		v0.69c0,0.36,0.3,0.66,0.66,0.66h6.77c0.36,0,0.66-0.3,0.66-0.66v-0.69h1.28v0.69C16.95,17.92,16.08,18.79,15.01,18.79
		 M16.95,12.99v0.78h-1.28v-0.78c0-0.36-0.3-0.66-0.66-0.66H8.23c-0.36,0-0.66,0.3-0.66,0.66v0.78H6.29v-0.78
		c0-1.07,0.87-1.94,1.94-1.94h6.77C16.08,11.05,16.95,11.92,16.95,12.99"/>
	<path d="M86.95,7.06h-4.74v2.39h3.82c-0.43,0.94-0.94,1.89-1.5,2.82c-0.12,0.15-0.21,0.31-0.29,0.48
		c-0.68,1.07-1.42,2.09-2.18,2.97l-0.18,0.21l1.8,1.56l0.18-0.21c0.05-0.05,0.09-0.11,0.14-0.16v1.34c0,1.38,1.12,2.49,2.49,2.49
		h3.6c1.37,0,2.49-1.12,2.49-2.49V13.8c0-1.37-1.12-2.49-2.49-2.49h-2.37c0.31-0.62,0.61-1.25,0.87-1.86h4.03V7.06h-3.15H86.95z
		 M88.7,7.61c-0.14,0.42-0.31,0.85-0.49,1.28h-1.35c0.18-0.44,0.34-0.87,0.49-1.28H88.7z M82.76,8.9V7.61h4
		c-0.15,0.42-0.31,0.85-0.5,1.28H82.76z M84.98,12.58c0.36-0.44,0.9-0.72,1.51-0.72h0.32c-0.69,1.3-1.47,2.55-2.26,3.64v-1.7
		c0-0.29,0.06-0.56,0.17-0.8C84.81,12.87,84.89,12.72,84.98,12.58 M86.49,13.7h3.6c0.06,0,0.11,0.05,0.11,0.11v4.64
		c0,0.06-0.05,0.11-0.11,0.11h-3.6c-0.06,0-0.11-0.05-0.11-0.11V13.8C86.38,13.75,86.43,13.7,86.49,13.7 M83.62,16.7l-0.97-0.84
		c0.46-0.55,0.91-1.14,1.35-1.76v2.14C83.87,16.4,83.74,16.55,83.62,16.7 M90.09,11.86c1.07,0,1.94,0.87,1.94,1.94v4.64
		c0,1.07-0.87,1.94-1.94,1.94h-3.6c-1.07,0-1.94-0.87-1.94-1.94v-2.02c0.43-0.56,0.86-1.17,1.28-1.82v3.84
		c0,0.36,0.3,0.66,0.66,0.66h3.6c0.36,0,0.66-0.3,0.66-0.66V13.8c0-0.36-0.3-0.66-0.66-0.66h-3.37c0.24-0.42,0.48-0.85,0.71-1.28
		H90.09z M87.1,11.31h-0.61c-0.3,0-0.6,0.06-0.86,0.16c0.37-0.67,0.71-1.35,1-2.02h1.36C87.71,10.06,87.42,10.69,87.1,11.31
		 M92.06,7.61V8.9h-3.25c0.18-0.44,0.34-0.87,0.47-1.28H92.06z"/>
	<path d="M101.44,7.06h-3.62h-2.39h-1.54v2.38h1.54v1.68h-1.54v2.39h1.51c-0.1,2.15-0.54,4.03-1.89,5.9l-0.16,0.22l1.93,1.4
		l0.16-0.22c1.78-2.46,2.25-4.94,2.35-7.3h3.64v7.42h2.39v-7.42h1.81v-2.39h-1.81V9.45h1.81V7.06h-1.81H101.44z M103.28,8.9h-1.28
		V7.61h1.28V8.9z M101.44,8.9h-3.62V7.61h3.62V8.9z M101.44,11.13h-3.62V9.45h3.62V11.13z M97.28,8.9h-1.28V7.61h1.28V8.9z
		 M94.46,7.61h0.99V8.9h-0.99V7.61z M95.99,9.45h1.28v1.68h-1.28V9.45z M97.27,12.96h-1.28c0-0.21,0.01-0.43,0.01-0.64v-0.64h1.28
		v0.64C97.28,12.53,97.27,12.75,97.27,12.96 M94.46,12.96v-1.28h0.99v0.64c0,0.22,0,0.43-0.01,0.64H94.46z M95.16,20.26l-1.04-0.75
		c1.31-1.9,1.74-3.82,1.84-5.99h1.29C97.16,15.7,96.73,18,95.16,20.26 M97.82,12.96c0-0.22,0.01-0.43,0.01-0.64v-0.64h3.62v1.28
		H97.82z M101.99,11.68h1.28v1.28h-1.28V11.68z M103.28,20.38h-1.28v-6.87h1.28V20.38z M105.09,12.96h-1.26v-1.28h1.26V12.96z
		 M103.28,11.13h-1.28V9.45h1.28V11.13z M105.09,8.9h-1.26V7.61h1.26V8.9z"/>
	<path d="M130.89,11.95l-1.27-2.02l-0.23,0.15c-2.03,1.27-3.7,1.7-6.59,1.7h-0.28v2.38h0.28c3.36,0,5.41-0.54,7.85-2.07
		L130.89,11.95z M123.08,13.61v-1.28c2.73-0.03,4.4-0.46,6.37-1.64l0.68,1.09C127.96,13.09,126.05,13.59,123.08,13.61"/>
	<path d="M142.54,7.1h-8.03V5.24h-2.39V7.1h-8.03c-1.37,0-2.49,1.12-2.49,2.49v1.68h2.39V9.59c0-0.06,0.05-0.11,0.11-0.11h18.44
		c0.06,0,0.11,0.05,0.11,0.11v1.68h2.39V9.59C145.04,8.22,143.92,7.1,142.54,7.1 M132.68,5.79h1.28V7.1h-1.28V5.79z M132.68,7.65
		h1.28v1.23h-1.28V7.65z M123.44,9.59v1.13h-1.28V9.59c0-1.07,0.87-1.94,1.94-1.94h8.03v1.28h-8.03
		C123.74,8.93,123.44,9.23,123.44,9.59 M144.49,10.72h-1.28V9.59c0-0.36-0.3-0.66-0.66-0.66h-8.03V7.65h8.03
		c1.07,0,1.94,0.87,1.94,1.94V10.72z"/>
	<path d="M135.62,10.29v1.3c0,1.37,1.12,2.49,2.49,2.49h6.01V11.7h-6.01c-0.06,0-0.11-0.05-0.11-0.11v-1.3H135.62z M138.11,12.25
		h5.46v1.28h-5.46c-1.07,0-1.94-0.87-1.94-1.94v-0.75h1.28v0.75C137.45,11.96,137.75,12.25,138.11,12.25"/>
	<path d="M139.33,18.44v-1.38c0-1.37-1.12-2.49-2.49-2.49h-3.31c0.66-1.2,0.99-2.54,0.99-4v-0.28h-2.39v0.28c0,1.63-0.6,2.94-1.54,4
		h-8.07v2.38h4.68c-1.83,0.85-3.85,1.34-5.42,1.62l-0.27,0.05l0.41,2.35l0.27-0.05c4.15-0.73,7.32-2.09,9.41-3.96h5.22
		c0.06,0,0.11,0.05,0.11,0.11v1.38c0,1.37,1.12,2.49,2.49,2.49h5.6v-2.39h-5.6C139.38,18.55,139.33,18.5,139.33,18.44 M132.68,10.84
		h1.29c-0.04,1.36-0.41,2.61-1.08,3.73h-1.57C132.11,13.55,132.62,12.32,132.68,10.84 M131.39,16.4h-2.07
		c0.56-0.38,1.07-0.81,1.53-1.28h1.68C132.19,15.57,131.82,16,131.39,16.4 M123.08,16.4v-1.28h6.98c-0.53,0.49-1.13,0.91-1.78,1.28
		H123.08z M122.38,20.33l-0.22-1.26c1.87-0.35,4.25-0.98,6.27-2.11h2.33C128.79,18.51,125.98,19.66,122.38,20.33 M144.49,20.39
		h-5.05c-1.07,0-1.94-0.87-1.94-1.94v-1.38c0-0.36-0.3-0.66-0.66-0.66h-4.66c0.39-0.41,0.73-0.83,1.02-1.28h3.64
		c1.07,0,1.94,0.87,1.94,1.94v1.38c0,0.36,0.3,0.66,0.66,0.66h5.05V20.39z"/>
	<path d="M161.09,9.43h10.45V7.05h-10.45V9.43z M161.64,7.6h9.35v1.28h-9.35V7.6z"/>
	<path d="M169.05,10.21h-5.46c-1.37,0-2.49,1.12-2.49,2.49v8.23h2.39v-3.27h5.57c1.33,0,2.49-1.25,2.49-2.67v-2.3
		C171.54,11.33,170.43,10.21,169.05,10.21 M162.93,17.12h-1.28v-1.28h1.28V17.12z M161.64,17.67h1.28v2.71h-1.28V17.67z M170.99,15
		c0,1.13-0.91,2.12-1.94,2.12h-5.57v-1.28h5.57c0.32,0,0.66-0.43,0.66-0.84v-2.3c0-0.36-0.3-0.66-0.66-0.66h-5.46
		c-0.36,0-0.66,0.3-0.66,0.66v2.58h-1.28V12.7c0-1.07,0.87-1.94,1.94-1.94h5.46c1.07,0,1.94,0.87,1.94,1.94V15z M163.48,15.29V12.7
		c0-0.06,0.05-0.11,0.11-0.11h5.46c0.06,0,0.11,0.05,0.11,0.11V15c0,0.12-0.09,0.24-0.15,0.28H163.48z"/>
	<path d="M176.87,9.43h7.71V7.05h-7.71c-1.37,0-2.49,1.12-2.49,2.49v1.63c0,0.07,0,0.13,0,0.2c0,0.01-0.01,0.02-0.01,0.03
		c0,0.01,0,0.02,0.01,0.03c-0.03,3.58-0.67,6.26-1.92,7.98l-0.16,0.22l1.93,1.4l0.16-0.22c1.27-1.75,2.04-4.2,2.29-7.3h3.71v7.42
		h2.39v-7.42h1.8v-2.39h-1.8h-2.39h-3.62V9.54C176.76,9.48,176.81,9.43,176.87,9.43 M174.92,11.68h1.28
		c-0.01,0.44-0.02,0.87-0.05,1.28h-1.29C174.9,12.55,174.91,12.12,174.92,11.68 M174.09,20.26l-1.04-0.75
		c0.96-1.44,1.56-3.45,1.77-5.99h1.29C175.88,16.35,175.21,18.61,174.09,20.26 M182.21,20.38h-1.28v-6.87h1.28V20.38z M184.01,12.96
		h-1.25v-1.28h1.25V12.96z M182.21,12.96h-1.28v-1.28h1.28V12.96z M180.38,12.96h-3.67c0.02-0.42,0.04-0.85,0.05-1.28h3.62V12.96z
		 M174.92,11.13V9.54c0-1.07,0.87-1.94,1.94-1.94h7.16v1.28h-7.16c-0.36,0-0.66,0.3-0.66,0.66v1.59H174.92z"/>
</g>
</svg>
